<svg xmlns="http://www.w3.org/2000/svg" viewBox="0 0 841.9 595.3">
    <symbol id="searchIcon" viewBox="0 0 16 16">
        <path d="M11.1468 9.49438C13.1058 6.78229 12.4506 3.02684 9.68429 1.10668C6.91795 -0.813484 3.08739 -0.171594 1.12882 2.54095C-0.829756 5.25304 -0.175027 9.00803 2.59178 10.9282C4.56626 12.2987 7.17676 12.4042 9.25935 11.1984L13.7844 15.6082C14.273 16.1124 15.0859 16.1326 15.6003 15.6536C16.1146 15.175 16.1352 14.3781 15.6471 13.8738C15.6316 13.8578 15.6166 13.8431 15.6003 13.8279L11.1468 9.49438ZM6.13406 9.90548C3.94804 9.90594 2.17573 8.16976 2.17432 6.02661C2.17386 3.88346 3.94476 2.14591 6.13125 2.14499C8.31446 2.14407 10.0858 3.8775 10.09 6.01789C10.0938 8.1615 8.32382 9.90181 6.13686 9.90548C6.13593 9.90548 6.13546 9.90548 6.13406 9.90548Z"
        />
    </symbol>

</svg>
